<?xml version="1.0" standalone="no"?>
<!DOCTYPE svg PUBLIC "-//W3C//DTD SVG 20010904//EN"
 "http://www.w3.org/TR/2001/REC-SVG-20010904/DTD/svg10.dtd">
<svg version="1.0" xmlns="http://www.w3.org/2000/svg"
 width="166.000000pt" height="49.000000pt" viewBox="0 0 166.000000 49.000000"
 preserveAspectRatio="xMidYMid meet">

<g transform="translate(0.000000,49.000000) scale(0.100000,-0.100000)"
fill="#000000" stroke="none">
<path d="M1250 336 c0 -85 4 -166 10 -181 11 -28 53 -49 81 -40 26 9 25 51 -1
58 -19 5 -20 14 -20 161 l0 156 -35 0 -35 0 0 -154z"/>
<path d="M720 300 l0 -180 35 0 35 0 0 80 0 80 80 0 c79 0 80 0 80 25 0 25 -1
25 -80 25 l-80 0 0 45 0 45 86 0 85 0 -3 28 -3 27 -117 3 -118 3 0 -181z"/>
<path d="M979 358 c99 -256 101 -267 60 -289 -12 -6 -28 -8 -36 -5 -12 5 -14
1 -9 -16 3 -13 6 -26 6 -30 0 -15 58 -8 79 9 17 15 141 318 141 346 0 5 -15 7
-32 5 -31 -3 -34 -7 -58 -75 -14 -40 -28 -73 -32 -73 -3 0 -17 33 -30 73 -24
71 -25 72 -61 75 -35 3 -36 2 -28 -20z"/>
<path d="M1429 341 c-34 -34 -39 -44 -39 -85 0 -66 23 -104 76 -128 69 -30
135 -9 174 55 55 90 -12 197 -124 197 -43 0 -53 -4 -87 -39z m129 -27 c32 -22
44 -58 31 -91 -21 -56 -74 -69 -114 -28 -39 38 -29 106 18 125 32 13 40 12 65
-6z"/>
</g>
</svg>
